<?xml version="1.0" encoding="utf-8"?>
<!-- Generator: Adobe Illustrator 26.0.1, SVG Export Plug-In . SVG Version: 6.00 Build 0)  -->
<svg version="1.1" id="Ebene_1" xmlns="http://www.w3.org/2000/svg" xmlns:xlink="http://www.w3.org/1999/xlink" x="0px" y="0px"
	 viewBox="0 0 1920 1080" style="enable-background:new 0 0 1920 1080;" xml:space="preserve">
<style type="text/css">
	.st0{opacity:0.62;fill:#9EB7E0;}
</style>
<path class="st0" d="M-1545.9-78.8c346.3-2.3,506.5,223.5,857.7,338.6C-513.8,317-71.6,551.2,98.1,485.3
	c171.4-66.6,266.3-197.8,366.3-203.5c206-11.8,327.8,337.6,178.8,484.1c-84.2,82.8-700,96.5-843.7,75
	c-299.8-44.7,102.8,333.2-323.7,295c-237.9-21.3-653.7-467.8-917.1-628.2c-226.6-138-752.8-226.8-877.5-293.8
	c-417.7-224.5-403-407.3,249.8-260.2C-1705,35.7-1734.2-77.6-1545.9-78.8z"/>
<path class="st0" d="M-1726.5-119.1c346.3-2.3,506.5,223.5,857.7,338.6C-694.4,276.7-252.2,511-82.5,445
	c171.4-66.6,266.3-197.8,366.3-203.5c206-11.8,327.8,337.6,178.8,484.1c-84.2,82.8-700,96.5-843.7,75
	c-299.8-44.7,102.8,333.2-323.7,295c-237.9-21.3-653.7-467.8-917.1-628.2c-226.6-138-752.8-226.8-877.5-293.8
	c-417.7-224.5-403-407.3,249.8-260.2C-1885.6-4.5-1914.8-117.8-1726.5-119.1z"/>
</svg>
